<?xml version="1.0" encoding="UTF-8" standalone="no"?>
<!-- Created with Inkscape (http://www.inkscape.org/) -->

<svg
   xmlns:dc="http://purl.org/dc/elements/1.1/"
   xmlns:cc="http://creativecommons.org/ns#"
   xmlns:rdf="http://www.w3.org/1999/02/22-rdf-syntax-ns#"
   xmlns:svg="http://www.w3.org/2000/svg"
   xmlns="http://www.w3.org/2000/svg"
   xmlns:sodipodi="http://sodipodi.sourceforge.net/DTD/sodipodi-0.dtd"
   xmlns:inkscape="http://www.inkscape.org/namespaces/inkscape"
   width="178mm"
   height="40mm"
   viewBox="0 0 178 40"
   version="1.1"
   id="svg8"
   inkscape:version="0.92.3 (2405546, 2018-03-11)"
   sodipodi:docname="logo_main.svg"
   inkscape:export-filename="C:\Users\zhengdf\Documents\GitHub\zhengDaFeng.github.io\assets\images\logo_big.png"
   inkscape:export-xdpi="25.4"
   inkscape:export-ydpi="25.4">
  <defs
     id="defs2" />
  <sodipodi:namedview
     id="base"
     pagecolor="#ffffff"
     bordercolor="#666666"
     borderopacity="1.0"
     inkscape:pageopacity="0.0"
     inkscape:pageshadow="2"
     inkscape:zoom="0.7"
     inkscape:cx="458.52698"
     inkscape:cy="-1.699709"
     inkscape:document-units="mm"
     inkscape:current-layer="layer1"
     showgrid="false"
     inkscape:snap-object-midpoints="true"
     inkscape:window-width="1920"
     inkscape:window-height="1001"
     inkscape:window-x="-9"
     inkscape:window-y="-9"
     inkscape:window-maximized="1" />
  <metadata
     id="metadata5">
    <rdf:RDF>
      <cc:Work
         rdf:about="">
        <dc:format>image/svg+xml</dc:format>
        <dc:type
           rdf:resource="http://purl.org/dc/dcmitype/StillImage" />
        <dc:title></dc:title>
      </cc:Work>
    </rdf:RDF>
  </metadata>
  <g
     inkscape:label="Layer 1"
     inkscape:groupmode="layer"
     id="layer1"
     transform="translate(0,-257)">
    <text
       xml:space="preserve"
       style="font-style:normal;font-weight:normal;font-size:10.58333302px;line-height:1.25;font-family:sans-serif;letter-spacing:0px;word-spacing:0px;fill:#000000;fill-opacity:0.25098039;stroke:none;stroke-width:0.26458332"
       x="108.95636"
       y="271.60001"
       id="text817"><tspan
         sodipodi:role="line"
         id="tspan815"
         x="108.95636"
         y="271.60001"
         style="font-style:normal;font-variant:normal;font-weight:bold;font-stretch:normal;font-size:16.93333244px;font-family:'Comic Sans MS';-inkscape-font-specification:'Comic Sans MS Bold';text-align:center;text-anchor:middle;fill:#93bd00;fill-opacity:0.68817204;stroke-width:0.26458332">Zdfffg's Guide</tspan><tspan
         sodipodi:role="line"
         x="108.95636"
         y="293.07614"
         style="font-style:normal;font-variant:normal;font-weight:bold;font-stretch:normal;font-size:16.93333244px;font-family:'Comic Sans MS';-inkscape-font-specification:'Comic Sans MS Bold';text-align:center;text-anchor:middle;fill:#93bd00;fill-opacity:0.68817204;stroke-width:0.26458332"
         id="tspan1376">郑大峰的私人导航</tspan></text>
    <path
       style="fill:#f06800;fill-opacity:0.12156863;stroke:#ff0000;stroke-width:1.65636408;stroke-miterlimit:4;stroke-dasharray:none;stroke-opacity:1;opacity:1"
       d="m 15.223819,271.69928 c -0.62366,-0.0486 -1.7465,-0.0949 -2.495199,-0.10304 -0.7487,-0.008 -1.599146,-0.0877 -1.889881,-0.17675 -0.617273,-0.1891 -4.2132057,-2.69235 -4.213606,-2.93323 -4.234e-4,-0.24901 2.2641896,-1.3792 3.259773,-1.62685 0.181901,-0.0453 0.330729,-0.13359 0.330729,-0.19631 0,-0.2755 1.353957,-0.37427 2.887661,-0.21067 0.860622,0.0918 1.651156,0.20546 1.756744,0.25254 0.105588,0.0471 0.64608,0.12307 1.201095,0.16885 0.555015,0.0458 1.509569,0.16748 2.121231,0.27043 0.611663,0.10296 1.174229,0.18985 1.250147,0.19311 0.783185,0.0336 2.277939,0.21036 2.509222,0.29679 0.160776,0.0601 0.679362,0.14208 1.152413,0.18221 0.47305,0.0402 1.244052,0.13507 1.713335,0.21095 0.85094,0.1376 1.64674,0.23306 3.078539,0.36929 0.816935,0.0778 1.226458,0.3338 1.123786,0.70266 -0.03556,0.12776 -0.115025,0.51511 -0.176586,0.86077 l -0.111929,0.6285 -1.173588,0.086 c -1.558562,0.11423 -2.307749,0.19253 -3.441445,0.35971 -0.519717,0.0766 -1.242597,0.17024 -1.606399,0.20799 -0.363802,0.0377 -0.87407,0.0964 -1.133928,0.13023 -3.089865,0.40269 -4.323587,0.46833 -6.142114,0.32681 z"
       id="path4023"
       inkscape:connector-curvature="0" />
    <path
       style="fill:#ef6300;fill-opacity:0.12156863;stroke:#ff0000;stroke-width:1.71676111;stroke-miterlimit:4;stroke-dasharray:none;stroke-opacity:1"
       d="m 12.732216,278.146 c -0.461978,-0.0576 -0.548182,-0.27788 -0.727129,-1.85877 -0.06348,-0.56078 -0.152252,-1.06579 -0.197281,-1.12226 -0.07241,-0.0908 0.343809,-0.16973 1.857367,-0.35221 0.233595,-0.0282 0.722374,-0.0869 1.086176,-0.13059 0.363802,-0.0437 0.87407,-0.1124 1.133929,-0.15274 0.259858,-0.0404 0.897693,-0.11114 1.417411,-0.15732 0.519717,-0.0462 1.157552,-0.14171 1.41741,-0.21228 0.259859,-0.0706 0.982738,-0.17604 1.606399,-0.23437 0.623661,-0.0583 1.304018,-0.12949 1.511905,-0.15814 0.207887,-0.0286 0.505543,-0.0574 0.661458,-0.0639 0.155915,-0.007 0.538616,-0.068 0.850447,-0.13658 0.31183,-0.0686 1.119754,-0.16829 1.795386,-0.22148 0.675633,-0.0532 1.297419,-0.12933 1.381748,-0.1692 0.179144,-0.0847 0.697997,-0.15119 2.436511,-0.31221 1.165087,-0.10791 1.748338,-0.0318 2.040371,0.26627 0.05197,0.053 0.222063,0.14366 0.377976,0.20137 0.155917,0.0577 0.454774,0.18472 0.664131,0.28228 0.942157,0.43898 1.893755,0.89134 1.963758,0.93349 0.0421,0.0253 -0.629345,0.59948 -1.492104,1.27583 l -1.568656,1.22972 -1.342716,0.16156 c -0.738494,0.0888 -2.36325,0.19581 -3.610572,0.23767 -1.247322,0.0419 -2.778125,0.11 -3.401786,0.15143 -0.623661,0.0414 -1.261495,0.0802 -1.417411,0.0859 -0.155915,0.006 -1.261495,0.0726 -2.456845,0.14845 -1.195349,0.0758 -2.726153,0.1453 -3.401785,0.15443 -0.675633,0.009 -1.441035,0.059 -1.700893,0.11078 -0.259859,0.0518 -0.658201,0.0711 -0.885205,0.0428 z"
       id="path4025"
       inkscape:connector-curvature="0" />
    <path
       style="fill:#ef6300;fill-opacity:0.12156863;stroke:#ff0000;stroke-width:7.37007904;stroke-miterlimit:4;stroke-dasharray:none;stroke-opacity:1"
       d="m 77.895989,29.786884 c -2.160714,-0.522221 -4.051191,-0.827623 -4.201059,-0.67867 -0.149869,0.148952 -0.873083,-0.05061 -1.607143,-0.443463 -1.163831,-0.622863 -1.334655,-1.609357 -1.334655,-7.707502 0,-6.5062 0.122411,-7.108214 1.757737,-8.644524 2.392515,-2.247651 6.845904,-2.5536279 8.928448,-0.613443 2.369925,2.207921 2.885243,4.362293 2.885243,12.062232 0,8.0455 0.395611,7.674702 -6.428571,6.02537 z"
       id="path4027"
       inkscape:connector-curvature="0"
       transform="matrix(0.26458333,0,0,0.26458333,0,257)" />
    <path
       style="fill:#ef6300;fill-opacity:0.12156863;stroke:#ff0000;stroke-width:7.37007904;stroke-miterlimit:4;stroke-dasharray:none;stroke-opacity:1"
       d="m 61.045301,140.87763 c -3.156063,-1.27627 -4.084143,-8.67676 -1.421989,-11.33892 0.621284,-0.62128 3.073262,-1.23379 5.916814,-1.47804 l 4.855863,-0.41708 0.190238,-19.10715 0.190238,-19.107141 2.309762,-0.04088 c 1.270369,-0.02248 4.318691,-0.208061 6.774048,-0.412394 l 4.464285,-0.371516 v 19.698111 19.69811 h 3.626374 c 3.055716,0 3.954934,0.32856 5.714286,2.08791 2.251148,2.25115 2.601741,4.39563 1.203138,7.35925 -1.776124,3.76357 -3.431763,4.1284 -18.511149,4.07899 -7.600099,-0.0249 -14.490458,-0.31706 -15.311908,-0.64925 z"
       id="path4029"
       inkscape:connector-curvature="0"
       transform="matrix(0.26458333,0,0,0.26458333,0,257)" />
  </g>
</svg>
