<?xml version="1.0" encoding="UTF-8" standalone="no"?>
<!-- Created with Inkscape (http://www.inkscape.org/) -->

<svg
   xmlns:dc="http://purl.org/dc/elements/1.1/"
   xmlns:cc="http://creativecommons.org/ns#"
   xmlns:rdf="http://www.w3.org/1999/02/22-rdf-syntax-ns#"
   xmlns:svg="http://www.w3.org/2000/svg"
   xmlns="http://www.w3.org/2000/svg"
   xmlns:sodipodi="http://sodipodi.sourceforge.net/DTD/sodipodi-0.dtd"
   xmlns:inkscape="http://www.inkscape.org/namespaces/inkscape"
   width="80mm"
   height="80mm"
   viewBox="0 0 80 80"
   version="1.1"
   id="svg4037"
   inkscape:version="0.92.3 (2405546, 2018-03-11)"
   sodipodi:docname="logo_small.svg">
  <defs
     id="defs4031" />
  <sodipodi:namedview
     id="base"
     pagecolor="#ffffff"
     bordercolor="#666666"
     borderopacity="1.0"
     inkscape:pageopacity="0.0"
     inkscape:pageshadow="2"
     inkscape:zoom="1.4"
     inkscape:cx="187.8951"
     inkscape:cy="135.33941"
     inkscape:document-units="mm"
     inkscape:current-layer="layer1"
     showgrid="false"
     inkscape:window-width="1920"
     inkscape:window-height="1001"
     inkscape:window-x="-9"
     inkscape:window-y="-9"
     inkscape:window-maximized="1" />
  <metadata
     id="metadata4034">
    <rdf:RDF>
      <cc:Work
         rdf:about="">
        <dc:format>image/svg+xml</dc:format>
        <dc:type
           rdf:resource="http://purl.org/dc/dcmitype/StillImage" />
        <dc:title></dc:title>
      </cc:Work>
    </rdf:RDF>
  </metadata>
  <g
     inkscape:label="Layer 1"
     inkscape:groupmode="layer"
     id="layer1"
     transform="translate(0,-217)">
    <path
       style="opacity:1;fill:#f06800;fill-opacity:0.12156863;stroke:#ff0000;stroke-width:3.36313128;stroke-miterlimit:4;stroke-dasharray:none;stroke-opacity:1"
       d="m 29.501107,245.54282 c -1.229472,-0.10167 -3.443013,-0.19847 -4.918981,-0.21549 -1.475972,-0.0167 -3.152521,-0.18339 -3.72567,-0.36962 -1.216878,-0.39546 -8.305819,-5.63038 -8.306608,-6.13412 -8.35e-4,-0.52075 4.463573,-2.88426 6.426243,-3.40215 0.358596,-0.0948 0.651992,-0.27937 0.651992,-0.41054 0,-0.57613 2.669161,-0.78269 5.69267,-0.44057 1.696611,0.19199 3.255052,0.42968 3.463206,0.52813 0.208156,0.0985 1.273667,0.25737 2.367814,0.35311 1.094144,0.0958 2.975931,0.35025 4.181747,0.56553 1.205819,0.21532 2.31485,0.39704 2.464512,0.40385 1.543954,0.0703 4.490678,0.43992 4.946625,0.62067 0.316949,0.12567 1.339279,0.29711 2.271841,0.38104 0.93256,0.0841 2.452496,0.28247 3.377631,0.44114 1.677524,0.28776 3.246346,0.48739 6.068962,0.77229 1.610488,0.1627 2.417813,0.69806 2.215407,1.46943 -0.0701,0.26719 -0.226758,1.07723 -0.348118,1.80009 l -0.220654,1.31435 -2.313585,0.17985 c -3.072515,0.23889 -4.549445,0.40262 -6.784389,0.75225 -1.024558,0.16018 -2.449627,0.356 -3.166818,0.43495 -0.717191,0.0788 -1.723122,0.2016 -2.235401,0.27235 -6.091291,0.84212 -8.523422,0.97939 -12.108426,0.68344 z"
       id="path4023"
       inkscape:connector-curvature="0" />
    <path
       style="fill:#ef6300;fill-opacity:0.12156863;stroke:#ff0000;stroke-width:3.48576307;stroke-miterlimit:4;stroke-dasharray:none;stroke-opacity:1"
       d="m 24.589215,259.02453 c -0.910734,-0.12046 -1.080675,-0.58112 -1.433447,-3.88716 -0.125143,-1.17273 -0.300146,-2.22883 -0.388915,-2.34692 -0.142747,-0.18988 0.677778,-0.35495 3.661572,-0.73656 0.460504,-0.059 1.424072,-0.18173 2.141263,-0.2731 0.717191,-0.0914 1.723122,-0.23505 2.235404,-0.31942 0.512279,-0.0845 1.769692,-0.23242 2.794253,-0.32899 1.024558,-0.0966 2.281972,-0.29636 2.79425,-0.44393 0.51228,-0.14765 1.937348,-0.36815 3.16682,-0.49013 1.22947,-0.12192 2.570711,-0.27079 2.980535,-0.33071 0.409824,-0.0598 0.996616,-0.12004 1.303984,-0.13363 0.307367,-0.0146 1.061816,-0.14221 1.676552,-0.28562 0.614734,-0.14346 2.207458,-0.35194 3.539384,-0.46318 1.331927,-0.11122 2.557703,-0.27046 2.723947,-0.35383 0.35316,-0.17714 1.376015,-0.31618 4.803283,-0.65291 2.296827,-0.22567 3.446635,-0.0665 4.022342,0.55684 0.102448,0.11087 0.437771,0.30043 0.745134,0.42111 0.307371,0.12067 0.896531,0.38629 1.309253,0.59032 1.857349,0.91802 3.733309,1.86401 3.871307,1.95216 0.08299,0.0529 -1.240674,1.25367 -2.941497,2.66808 l -3.092416,2.57166 -2.647,0.33785 c -1.45585,0.18571 -4.658858,0.40949 -7.117801,0.49703 -2.458942,0.0876 -5.476734,0.23004 -6.706205,0.31669 -1.229471,0.0866 -2.486883,0.16771 -2.794252,0.17963 -0.307367,0.0125 -2.486884,0.15183 -4.84337,0.31045 -2.356484,0.15851 -5.374277,0.30386 -6.706205,0.32295 -1.331927,0.0189 -2.840824,0.12339 -3.353103,0.23166 -0.512279,0.10835 -1.297562,0.1487 -1.745072,0.0895 z"
       id="path4025"
       inkscape:connector-curvature="0" />
    <path
       style="fill:#ef6300;fill-opacity:0.12156863;stroke:#ff0000;stroke-width:3.95933843;stroke-miterlimit:4;stroke-dasharray:none;stroke-opacity:1"
       d="m 40.119265,231.28432 c -1.127015,-0.28895 -2.113077,-0.45795 -2.191246,-0.37553 -0.07816,0.0823 -0.455394,-0.0281 -0.838275,-0.24537 -0.607048,-0.34463 -0.696149,-0.89047 -0.696149,-4.26465 0,-3.59994 0.06385,-3.93303 0.916825,-4.78308 1.247921,-1.24367 3.57078,-1.41295 4.657023,-0.33943 1.236137,1.22166 1.504923,2.4137 1.504923,6.67414 0,4.45166 0.206349,4.2465 -3.353101,3.33392 z"
       id="path4027"
       inkscape:connector-curvature="0" />
    <path
       style="fill:#ef6300;fill-opacity:0.12156863;stroke:#ff0000;stroke-width:3.95933843;stroke-miterlimit:4;stroke-dasharray:none;stroke-opacity:1"
       d="m 31.330053,292.75196 c -1.646184,-0.70618 -2.130265,-4.80095 -0.741702,-6.27395 0.324059,-0.34375 1.602994,-0.68266 3.086174,-0.81783 l 2.532787,-0.23076 0.09922,-10.57217 0.09922,-10.57218 1.204756,-0.0225 c 0.662618,-0.0125 2.252603,-0.11502 3.5333,-0.22817 l 2.328544,-0.20558 v 10.89917 10.89916 h 1.891494 c 1.59384,0 2.062867,0.18173 2.980536,1.15527 1.174184,1.24559 1.357051,2.43214 0.627548,4.07196 -0.926415,2.0824 -1.789985,2.28427 -9.655299,2.25694 -3.964163,-0.0146 -7.55813,-0.17546 -7.986593,-0.35924 z"
       id="path4029"
       inkscape:connector-curvature="0" />
  </g>
</svg>
